<svg width="760" height="760" viewBox="0 0 760 760" fill="none" xmlns="http://www.w3.org/2000/svg">
  <defs>
    <linearGradient id="panelFill" x1="598" y1="170" x2="208" y2="616" gradientUnits="userSpaceOnUse">
      <stop stop-color="#35153A"/>
      <stop offset="0.46" stop-color="#1D0B25"/>
      <stop offset="1" stop-color="#110611"/>
    </linearGradient>
    <linearGradient id="panelStroke" x1="568" y1="144" x2="234" y2="618" gradientUnits="userSpaceOnUse">
      <stop stop-color="#C98ABD"/>
      <stop offset="1" stop-color="#402048"/>
    </linearGradient>
    <radialGradient id="globeCore" cx="0" cy="0" r="1" gradientUnits="userSpaceOnUse" gradientTransform="translate(394 386) rotate(90) scale(205)">
      <stop offset="0.04" stop-color="#FFE5FA"/>
      <stop offset="0.18" stop-color="#E1B0FF"/>
      <stop offset="0.58" stop-color="#8C50CF"/>
      <stop offset="1" stop-color="#2A123A"/>
    </radialGradient>
    <radialGradient id="globeHalo" cx="0" cy="0" r="1" gradientUnits="userSpaceOnUse" gradientTransform="translate(394 386) rotate(90) scale(248)">
      <stop offset="0.5" stop-color="#E9B8FF" stop-opacity="0"/>
      <stop offset="0.82" stop-color="#F1B7FF" stop-opacity="0.34"/>
      <stop offset="1" stop-color="#F1B7FF" stop-opacity="0"/>
    </radialGradient>
    <radialGradient id="bloomPetal" cx="0" cy="0" r="1" gradientUnits="userSpaceOnUse" gradientTransform="translate(0 0) rotate(90) scale(52 38)">
      <stop stop-color="#FFF8FC"/>
      <stop offset="0.52" stop-color="#FFD5E8"/>
      <stop offset="1" stop-color="#E989BA"/>
    </radialGradient>
    <filter id="softGlow" x="-60" y="-60" width="120" height="120" filterUnits="userSpaceOnUse" color-interpolation-filters="sRGB">
      <feGaussianBlur stdDeviation="12"/>
    </filter>
    <filter id="bigGlow" x="84" y="84" width="620" height="620" filterUnits="userSpaceOnUse" color-interpolation-filters="sRGB">
      <feGaussianBlur stdDeviation="22"/>
    </filter>
    <filter id="edgeGlow" x="128" y="128" width="532" height="532" filterUnits="userSpaceOnUse" color-interpolation-filters="sRGB">
      <feGaussianBlur stdDeviation="6"/>
    </filter>
    <filter id="branchShadow" x="120" y="84" width="540" height="584" filterUnits="userSpaceOnUse" color-interpolation-filters="sRGB">
      <feGaussianBlur stdDeviation="10"/>
    </filter>
    <symbol id="blossom" viewBox="-56 -56 112 112">
      <circle cx="0" cy="0" r="38" fill="#FFD6EA" fill-opacity="0.22"/>
      <g>
        <path d="M0 -35C10 -29 14 -14 0 0C-14 -14 -10 -29 0 -35Z" fill="url(#bloomPetal)"/>
        <path d="M32 -8C25 0 10 3 0 0C7 -15 22 -18 32 -8Z" fill="url(#bloomPetal)"/>
        <path d="M20 27C8 24 0 12 0 0C15 4 25 15 20 27Z" fill="url(#bloomPetal)"/>
        <path d="M-20 27C-25 15 -15 4 0 0C0 12 -8 24 -20 27Z" fill="url(#bloomPetal)"/>
        <path d="M-32 -8C-22 -18 -7 -15 0 0C-10 3 -25 0 -32 -8Z" fill="url(#bloomPetal)"/>
      </g>
      <circle cx="0" cy="0" r="6.8" fill="#FFF2B0"/>
      <circle cx="0" cy="0" r="3.6" fill="#FFF9E6"/>
    </symbol>
  </defs>

  <g opacity="0.22" filter="url(#branchShadow)">
    <path d="M248 194C282 162 318 150 372 150H556C596 150 628 182 628 222V518C628 566 589 604 540 604H284" stroke="#F5B9D8" stroke-width="16" stroke-linecap="round"/>
  </g>

  <rect x="228" y="152" width="392" height="452" rx="40" fill="url(#panelFill)"/>
  <rect x="228" y="152" width="392" height="452" rx="40" stroke="url(#panelStroke)" stroke-width="3"/>
  <rect x="238" y="162" width="372" height="432" rx="32" stroke="#F2C1DF" stroke-opacity="0.14"/>

  <g filter="url(#bigGlow)">
    <circle cx="394" cy="386" r="206" fill="url(#globeHalo)"/>
  </g>
  <circle cx="394" cy="386" r="192" fill="url(#globeCore)"/>

  <g filter="url(#edgeGlow)" opacity="0.85">
    <circle cx="394" cy="386" r="193" stroke="#F5C1FF" stroke-width="6"/>
  </g>

  <g opacity="0.62">
    <path d="M250 358C292 338 322 334 356 338" stroke="#E9B0FF" stroke-opacity="0.34"/>
    <path d="M242 416C290 428 336 430 390 426" stroke="#E9B0FF" stroke-opacity="0.26"/>
    <path d="M292 248C286 294 286 450 312 510" stroke="#E9B0FF" stroke-opacity="0.22"/>
    <path d="M390 206C378 264 380 474 398 560" stroke="#E9B0FF" stroke-opacity="0.18"/>
    <path d="M488 236C500 294 500 430 480 520" stroke="#E9B0FF" stroke-opacity="0.22"/>
  </g>

  <g fill="#C987FF" fill-opacity="0.76">
    <path d="M342 270C302 284 282 318 286 360C292 420 332 456 360 462C372 420 390 382 404 352C392 302 370 276 342 270Z"/>
    <path d="M472 258C514 264 546 300 548 342C552 396 524 450 494 482C466 446 436 390 422 334C434 292 450 266 472 258Z"/>
    <path d="M404 430C382 458 366 506 372 548C406 544 452 510 472 474C450 450 430 438 404 430Z"/>
    <path d="M332 382C306 396 286 426 282 458C306 472 336 474 360 466C356 436 348 406 332 382Z"/>
  </g>

  <g opacity="0.84">
    <path d="M254 404C318 338 386 320 450 328C500 336 546 372 582 392" stroke="#FF8CDE" stroke-width="3"/>
    <path d="M300 520C360 446 432 406 510 384" stroke="#FF93E1" stroke-width="2.8"/>
    <path d="M262 308C324 302 390 316 442 344" stroke="#FFB0E7" stroke-width="2.6"/>
  </g>

  <g fill="#FFF2FF">
    <circle cx="278" cy="404" r="5.5"/>
    <circle cx="354" cy="354" r="7"/>
    <circle cx="444" cy="348" r="8"/>
    <circle cx="514" cy="386" r="5.5"/>
    <circle cx="566" cy="392" r="4.5"/>
    <circle cx="332" cy="478" r="5"/>
    <circle cx="420" cy="438" r="5.5"/>
    <circle cx="488" cy="406" r="4.5"/>
  </g>

  <g opacity="0.8">
    <path d="M286 186C258 194 236 216 230 246" stroke="#5A2742" stroke-width="8" stroke-linecap="round"/>
    <path d="M236 248C222 290 204 326 174 350" stroke="#5A2742" stroke-width="7" stroke-linecap="round"/>
    <path d="M238 250C216 224 196 208 160 198" stroke="#5A2742" stroke-width="6.5" stroke-linecap="round"/>
    <path d="M256 498C236 530 210 552 178 566" stroke="#5A2742" stroke-width="7" stroke-linecap="round"/>
    <path d="M546 554C574 534 600 510 616 478" stroke="#5A2742" stroke-width="7" stroke-linecap="round"/>
    <path d="M600 430C626 420 646 402 656 378" stroke="#5A2742" stroke-width="6" stroke-linecap="round"/>
  </g>

  <g opacity="0.92">
    <use href="#blossom" x="242" y="184" width="94" height="94"/>
    <use href="#blossom" x="200" y="250" width="76" height="76" transform="rotate(-10 200 250)"/>
    <use href="#blossom" x="164" y="208" width="60" height="60" transform="rotate(18 164 208)"/>
    <use href="#blossom" x="176" y="350" width="54" height="54"/>
    <use href="#blossom" x="250" y="500" width="112" height="112" transform="rotate(-6 250 500)"/>
    <use href="#blossom" x="182" y="560" width="72" height="72"/>
    <use href="#blossom" x="560" y="554" width="98" height="98" transform="rotate(12 560 554)"/>
    <use href="#blossom" x="630" y="432" width="66" height="66"/>
    <use href="#blossom" x="594" y="218" width="58" height="58"/>
    <use href="#blossom" x="642" y="344" width="52" height="52"/>
  </g>

  <g opacity="0.74" filter="url(#softGlow)">
    <circle cx="248" cy="182" r="18" fill="#FFE6F2"/>
    <circle cx="250" cy="502" r="22" fill="#FFE6F2"/>
    <circle cx="562" cy="554" r="22" fill="#FFE6F2"/>
  </g>
</svg>
